<svg width="20" height="20" viewBox="0 0 20 20" fill="none" xmlns="http://www.w3.org/2000/svg">
<path fill-rule="evenodd" clip-rule="evenodd" d="M10.1001 0.25C4.71532 0.25 0.350098 4.61522 0.350098 10C0.350098 15.3848 4.71532 19.75 10.1001 19.75C15.4849 19.75 19.8501 15.3848 19.8501 10C19.8501 4.61522 15.4849 0.25 10.1001 0.25ZM10.8501 4C10.8501 3.58579 10.5143 3.25 10.1001 3.25C9.68588 3.25 9.3501 3.58579 9.3501 4V10C9.3501 10.4142 9.68588 10.75 10.1001 10.75H14.6001C15.0143 10.75 15.3501 10.4142 15.3501 10C15.3501 9.58579 15.0143 9.25 14.6001 9.25H10.8501V4Z" fill="#999999"/>
</svg>
