<svg width="23" height="18" viewBox="0 0 23 18" fill="none" xmlns="http://www.w3.org/2000/svg">
<path d="M11.7001 12C13.3569 12 14.7001 10.6569 14.7001 9C14.7001 7.34315 13.3569 6 11.7001 6C10.0432 6 8.70007 7.34315 8.70007 9C8.70007 10.6569 10.0432 12 11.7001 12Z" fill="#999999"/>
<path fill-rule="evenodd" clip-rule="evenodd" d="M1.02348 8.4467C2.51074 3.97571 6.72799 0.75 11.7006 0.75C16.6709 0.75 20.8865 3.97271 22.3756 8.44045C22.496 8.80152 22.4961 9.19217 22.3759 9.55331C20.8887 14.0243 16.6714 17.25 11.6988 17.25C6.72855 17.25 2.51291 14.0273 1.02381 9.55955C0.90347 9.19849 0.903356 8.80783 1.02348 8.4467ZM16.9501 9C16.9501 11.8995 14.5996 14.25 11.7001 14.25C8.80058 14.25 6.45007 11.8995 6.45007 9C6.45007 6.1005 8.80058 3.75 11.7001 3.75C14.5996 3.75 16.9501 6.1005 16.9501 9Z" fill="#999999"/>
</svg>
