<svg width="87" height="32" viewBox="0 0 87 32" fill="none" xmlns="http://www.w3.org/2000/svg">
<rect x="0.5" width="86" height="32" rx="5" fill="#E60000"/>
<path d="M14.492 22V12.056H10.66V10.48H19.996V12.056H16.164V22H14.492ZM23.747 22.24C22.883 22.24 22.1337 22.0453 21.499 21.656C20.8643 21.2667 20.3737 20.7307 20.027 20.048C19.6857 19.36 19.515 18.568 19.515 17.672C19.515 16.7707 19.691 15.9787 20.043 15.296C20.395 14.608 20.8883 14.0747 21.523 13.696C22.1577 13.312 22.899 13.12 23.747 13.12C24.611 13.12 25.3603 13.3147 25.995 13.704C26.6297 14.0933 27.1203 14.6293 27.467 15.312C27.8137 15.9947 27.987 16.7813 27.987 17.672C27.987 18.5733 27.811 19.368 27.459 20.056C27.1123 20.7387 26.6217 21.2747 25.987 21.664C25.3523 22.048 24.6057 22.24 23.747 22.24ZM23.747 20.664C24.5737 20.664 25.1897 20.3867 25.595 19.832C26.0057 19.272 26.211 18.552 26.211 17.672C26.211 16.7707 26.003 16.0507 25.587 15.512C25.1763 14.968 24.563 14.696 23.747 14.696C23.187 14.696 22.7257 14.824 22.363 15.08C22.0003 15.3307 21.731 15.68 21.555 16.128C21.379 16.5707 21.291 17.0853 21.291 17.672C21.291 18.5787 21.499 19.304 21.915 19.848C22.331 20.392 22.9417 20.664 23.747 20.664ZM33.801 22.24C32.9743 22.24 32.281 22.04 31.721 21.64C31.161 21.2347 30.737 20.688 30.449 20C30.161 19.312 30.017 18.536 30.017 17.672C30.017 16.808 30.1583 16.032 30.441 15.344C30.729 14.656 31.1503 14.1147 31.705 13.72C32.265 13.32 32.953 13.12 33.769 13.12C34.5797 13.12 35.2783 13.32 35.865 13.72C36.457 14.1147 36.913 14.656 37.233 15.344C37.553 16.0267 37.713 16.8027 37.713 17.672C37.713 18.536 37.553 19.3147 37.233 20.008C36.9183 20.696 36.4677 21.24 35.881 21.64C35.2997 22.04 34.6063 22.24 33.801 22.24ZM29.737 25.84V13.36H31.225V19.576H31.417V25.84H29.737ZM33.569 20.728C34.1023 20.728 34.5423 20.592 34.889 20.32C35.241 20.048 35.5023 19.6827 35.673 19.224C35.849 18.76 35.937 18.2427 35.937 17.672C35.937 17.1067 35.849 16.5947 35.673 16.136C35.5023 15.6773 35.2383 15.312 34.881 15.04C34.5237 14.768 34.0677 14.632 33.513 14.632C32.9903 14.632 32.5583 14.76 32.217 15.016C31.881 15.272 31.6303 15.6293 31.465 16.088C31.305 16.5467 31.225 17.0747 31.225 17.672C31.225 18.2693 31.305 18.7973 31.465 19.256C31.625 19.7147 31.8783 20.0747 32.225 20.336C32.5717 20.5973 33.0197 20.728 33.569 20.728ZM44.6905 22V12.32L42.5225 13.64V11.776L44.6905 10.48H46.3945V22H44.6905ZM53.4485 22.24C52.6645 22.24 51.9712 22.0693 51.3685 21.728C50.7658 21.3813 50.2912 20.9067 49.9445 20.304C49.6032 19.7013 49.4325 19.008 49.4325 18.224V14.256C49.4325 13.472 49.6032 12.7787 49.9445 12.176C50.2912 11.5733 50.7658 11.1013 51.3685 10.76C51.9712 10.4133 52.6645 10.24 53.4485 10.24C54.2325 10.24 54.9258 10.4133 55.5285 10.76C56.1312 11.1013 56.6032 11.5733 56.9445 12.176C57.2912 12.7787 57.4645 13.472 57.4645 14.256V18.224C57.4645 19.008 57.2912 19.7013 56.9445 20.304C56.6032 20.9067 56.1312 21.3813 55.5285 21.728C54.9258 22.0693 54.2325 22.24 53.4485 22.24ZM53.4485 20.64C53.8752 20.64 54.2618 20.5387 54.6085 20.336C54.9605 20.128 55.2405 19.8507 55.4485 19.504C55.6565 19.152 55.7605 18.76 55.7605 18.328V14.136C55.7605 13.7093 55.6565 13.3227 55.4485 12.976C55.2405 12.624 54.9605 12.3467 54.6085 12.144C54.2618 11.936 53.8752 11.832 53.4485 11.832C53.0218 11.832 52.6325 11.936 52.2805 12.144C51.9338 12.3467 51.6565 12.624 51.4485 12.976C51.2405 13.3227 51.1365 13.7093 51.1365 14.136V18.328C51.1365 18.76 51.2405 19.152 51.4485 19.504C51.6565 19.8507 51.9338 20.128 52.2805 20.336C52.6325 20.5387 53.0218 20.64 53.4485 20.64ZM63.0613 22V10.48H64.7333V22H63.0613ZM73.1996 22V17.752C73.1996 17.416 73.1703 17.072 73.1116 16.72C73.0583 16.3627 72.9516 16.032 72.7916 15.728C72.637 15.424 72.4156 15.1787 72.1276 14.992C71.845 14.8053 71.4743 14.712 71.0156 14.712C70.717 14.712 70.4343 14.7627 70.1676 14.864C69.901 14.96 69.6663 15.1173 69.4636 15.336C69.2663 15.5547 69.109 15.8427 68.9916 16.2C68.8796 16.5573 68.8236 16.992 68.8236 17.504L67.7836 17.112C67.7836 16.328 67.9303 15.6373 68.2236 15.04C68.517 14.4373 68.9383 13.968 69.4876 13.632C70.037 13.296 70.701 13.128 71.4796 13.128C72.077 13.128 72.5783 13.224 72.9836 13.416C73.389 13.608 73.717 13.8613 73.9676 14.176C74.2236 14.4853 74.4183 14.824 74.5516 15.192C74.685 15.56 74.7756 15.92 74.8236 16.272C74.8716 16.624 74.8956 16.9333 74.8956 17.2V22H73.1996ZM67.1276 22V13.36H68.6236V15.856H68.8236V22H67.1276Z" fill="white"/>
</svg>
